Coordinates
version=1
nRows=25
nColumns=23
inDegrees=yes

Units are S.I. units (second, meters, Newtons, ...)
If the header above contains a line with 'inDegrees', this indicates whether rotational values are in degrees (yes) or radians (no).

endheader
time	pelvis_tilt	pelvis_list	pelvis_rotation	pelvis_tx	pelvis_ty	pelvis_tz	hip_flexion_r	hip_adduction_r	hip_rotation_r	knee_angle_r	knee_angle_r_beta	ankle_angle_r	subtalar_angle_r	mtp_angle_r	hip_flexion_l	hip_adduction_l	hip_rotation_l	knee_angle_l	knee_angle_l_beta	ankle_angle_l	subtalar_angle_l	mtp_angle_l
     15.00000000	    -16.49459458	     -0.00354051	      1.05891963	      2.28616510	      0.96889623	      1.01731746	      8.33208528	      2.09944302	     -5.40810501	     30.89883913	      0.53928648	     15.45990790	      1.34866583	      0.00000000	     54.35884192	     -1.29724961	     -1.08584324	    107.91924145	      1.88354609	      7.47939975	     -1.52550216	      0.00000000
     15.00666667	    -16.60419582	      0.85571557	      1.48960338	      2.28848907	      0.97318371	      1.01732460	      5.48758673	      1.18435983	     -5.88877734	     28.16959349	      0.49165216	     11.98492759	      1.85196473	      0.00000000	     55.49326666	     -0.26749215	     -2.03586366	    104.38177509	      1.82180565	      7.89535191	     -2.23207386	      0.00000000
     15.01333333	    -16.58870088	      1.74649712	      1.85570282	      2.29110709	      0.97771890	      1.01745143	      2.55200290	      0.31478369	     -6.22249357	     25.38820444	      0.44310776	      8.06982523	      2.15646617	      0.00000000	     56.24494902	      0.71502560	     -3.02064814	    100.56333645	      1.75516133	      8.31563643	     -2.92366034	      0.00000000
     15.02000000	    -16.57168119	      2.58578488	      2.20486116	      2.29385916	      0.98221685	      1.01756360	     -0.31061464	     -0.44057580	     -6.43652146	     22.62559445	      0.39489112	      3.83639586	      2.00589540	      0.00000000	     56.78928655	      1.65136572	     -3.92793866	     96.51297687	      1.68446922	      8.70759856	     -3.54540876	      0.00000000
     15.02666667	    -16.56201880	      3.38699918	      2.56345472	      2.29667351	      0.98663553	      1.01756036	     -3.00456521	     -1.19097669	     -6.92350664	     20.10695339	      0.35093254	     -0.41707892	      2.12877040	      0.00000000	     57.14715524	      2.61005244	     -4.72620419	     92.21554282	      1.60946484	      9.01748094	     -4.31438439	      0.00000000
     15.03333333	    -16.57788963	      4.08827917	      2.91233276	      2.29947362	      0.99085835	      1.01755840	     -5.52165575	     -1.77293591	     -7.25535305	     17.80637565	      0.31077988	     -4.67680438	      1.67375511	      0.00000000	     57.34904290	      3.49390074	     -5.39644895	     87.71515628	      1.53091828	      9.33861104	     -4.93938682	      0.00000000
     15.04000000	    -16.62050959	      4.72714061	      3.21752259	      2.30221017	      0.99485643	      1.01755940	     -7.72758698	     -2.36278025	     -8.00710023	     16.04460157	      0.28003112	     -8.51551793	      1.55550991	      0.00000000	     57.38145725	      4.29737586	     -5.99302806	     82.98107786	      1.44829303	      9.59656283	     -5.61687895	      0.00000000
     15.04666667	    -16.70595389	      5.21294603	      3.56309488	      2.30469646	      0.99852036	      1.01745993	     -9.60765663	     -2.79056477	     -8.94480097	     14.82886090	      0.25881245	    -11.90216097	      1.22299965	      0.00000000	     57.31428521	      5.06997159	     -6.36124236	     78.06372306	      1.36246899	      9.82643520	     -6.19944460	      0.00000000
     15.05333333	    -17.23834886	      5.46411975	      3.81400118	      2.30684395	      1.00126998	      1.01754320	    -10.57410396	     -3.08651324	    -10.10629276	     14.46283470	      0.25242408	    -14.57502846	      0.83437139	      0.00000000	     57.57611311	      5.50630620	     -6.69020887	     73.01777164	      1.27440053	     10.22811319	     -6.22040295	      0.00000000
     15.06000000	    -16.96927787	      5.72817210	      4.11760765	      2.30909193	      1.00470271	      1.01753494	    -12.33507430	     -3.23259161	    -11.17015665	     14.26924464	      0.24904530	    -16.76543777	     -0.30502003	      0.00000000	     56.74359463	      6.10452420	     -6.78137446	     67.67601357	      1.18116926	     10.26157132	     -6.88973313	      0.00000000
     15.06666667	    -17.42419227	      5.65459720	      4.39718149	      2.31085712	      1.00668018	      1.01760892	    -12.83106071	     -3.21128514	    -12.53181571	     15.08822242	      0.26333916	    -18.08759531	     -1.37170099	      0.00000000	     56.58620698	      6.31333120	     -6.85404534	     62.31363589	      1.08757812	     10.67486308	     -6.44754154	      0.00000000
     15.07333333	    -17.36087766	      5.62136235	      4.59363648	      2.31247485	      1.00888321	      1.01761095	    -13.64134543	     -3.23961809	    -13.82706365	     16.45333695	      0.28716490	    -18.73163597	     -2.65025583	      0.00000000	     55.65507403	      6.54708709	     -6.89366150	     56.69787797	      0.98956465	     10.66148351	     -6.54467790	      0.00000000
     15.08000000	    -17.54699935	      5.37008746	      4.78318752	      2.31380763	      1.01017328	      1.01754968	    -13.88614231	     -3.15662768	    -15.12543313	     18.47646891	      0.32247522	    -18.79149530	     -4.00095960	      0.00000000	     54.87370872	      6.56816792	     -6.94494252	     51.07153722	      0.89136648	     10.83275518	     -5.88694250	      0.00000000
     15.08666667	    -17.71377348	      5.00386178	      4.95553547	      2.31498248	      1.01085635	      1.01733947	    -13.93606176	     -3.00649153	    -16.17304838	     20.99295143	      0.36639612	    -18.46294956	     -5.60699175	      0.00000000	     53.95273391	      6.47117460	     -7.07596292	     45.46479852	      0.79351043	     11.06582478	     -4.67338605	      0.00000000
     15.09333333	    -17.78557478	      4.55848919	      5.10461928	      2.31605060	      1.01114293	      1.01690051	    -13.89892946	     -2.80298952	    -16.87786009	     23.90285723	      0.41718356	    -17.77458911	     -7.20127483	      0.00000000	     52.80960502	      6.36034029	     -7.17282754	     39.89944985	      0.69637677	     11.22913687	     -3.20425408	      0.00000000
     15.10000000	    -17.63810883	      4.19525542	      5.06146761	      2.31704737	      1.01118313	      1.01646949	    -13.86708203	     -2.77465052	    -17.22082784	     27.28056524	      0.47613569	    -17.08951104	     -8.63907542	      0.00000000	     51.32440056	      6.17666243	     -7.54666687	     34.46449013	      0.60151883	     11.17953468	     -1.65564109	      0.00000000
     15.10666667	    -17.43965902	      3.67731728	      5.07292216	      2.31789154	      1.01064406	      1.01578394	    -13.70579260	     -2.52835587	    -17.10936516	     30.94928749	      0.54016697	    -16.43744397	    -10.25053031	      0.00000000	     49.82679899	      5.99120371	     -7.69563082	     29.47120899	      0.51436963	     11.19143058	      0.20340125	      0.00000000
     15.11333333	    -17.18320340	      3.06238615	      5.08805946	      2.31849034	      1.00956041	      1.01498741	    -13.37604897	     -2.13442830	    -16.60005574	     34.96583103	      0.61026888	    -15.88899090	    -11.89947083	      0.00000000	     48.37697383	      5.76915287	     -7.67742303	     25.09981257	      0.43807437	     11.16736567	      2.10743537	      0.00000000
     15.12000000	    -16.77311240	      2.47563582	      5.05224482	      2.31895535	      1.00821850	      1.01429345	    -13.01741446	     -1.68971287	    -15.75871678	     39.22944946	      0.68468306	    -15.64780481	    -13.45181729	      0.00000000	     46.85467829	      5.52774470	     -7.61189809	     21.37408489	      0.37304816	     10.94860357	      3.71552056	      0.00000000
     15.12666667	    -16.36439397	      1.85463906	      5.10085508	      2.31902260	      1.00641304	      1.01359142	    -12.42756170	     -1.12120514	    -14.78289694	     43.79066943	      0.76429136	    -15.53583252	    -14.88163427	      0.00000000	     45.51340911	      5.32438732	     -7.19237862	     18.47165975	      0.32239128	     10.56376733	      4.84067187	      0.00000000
     15.13333333	    -16.03788046	      1.26813774	      5.16915186	      2.31868597	      1.00409008	      1.01305082	    -11.52908493	     -0.54504526	    -13.78711120	     48.63039539	      0.84876052	    -15.56321673	    -15.93332441	      0.00000000	     44.51153416	      5.07257960	     -6.89383618	     16.57969210	      0.28937022	     10.03815943	      5.80773183	      0.00000000
     15.14000000	    -15.61841150	      0.77986906	      5.36048547	      2.31803192	      1.00156002	      1.01259577	    -10.57688996	      0.03243285	    -12.90995825	     53.60404032	      0.93556700	    -15.59736001	    -16.71280579	      0.00000000	     43.62564646	      4.90960431	     -6.52126810	     15.65199212	      0.27317880	      9.45588135	      6.44005729	      0.00000000
     15.14666667	    -15.31060197	      0.47361335	      5.56867447	      2.31695382	      0.99858587	      1.01228300	     -9.34541082	      0.41431838	    -12.18842962	     58.72821187	      1.02500066	    -15.81656256	    -17.21750284	      0.00000000	     43.04337594	      4.84358967	     -6.26998066	     15.59075882	      0.27211007	      8.33405851	      6.40043396	      0.00000000
     15.15333333	    -15.29982673	      0.10385444	      5.95767238	      2.31531961	      0.99487651	      1.01189865	     -7.64663192	      0.84741565	    -11.77601977	     63.91298927	      1.11549210	    -15.96110371	    -17.24611485	      0.00000000	     43.01085537	      4.86401893	     -5.50302853	     16.42988401	      0.28675557	      6.94122075	      5.26717520	      0.00000000
     15.16000000	    -15.07073589	      0.02236990	      6.35040491	      2.31356133	      0.99112162	      1.01165539	     -6.13295168	      0.96670905	    -11.53354864	     69.03695106	      1.20492210	    -16.03154901	    -17.15760955	      0.00000000	     42.94900844	      4.98224864	     -5.24488900	     18.19234092	      0.31751625	      5.48814189	      4.20956592	      0.00000000
